<?xml version="1.0" encoding="utf-8"?>
<!-- Generator: Adobe Illustrator 23.0.6, SVG Export Plug-In . SVG Version: 6.00 Build 0)  -->
<svg version="1.1" id="Layer_1" xmlns="http://www.w3.org/2000/svg" xmlns:xlink="http://www.w3.org/1999/xlink" x="0px" y="0px"
	 viewBox="0 0 512 512" style="enable-background:new 0 0 512 512;" xml:space="preserve">
<style type="text/css">
	.st0{fill:#1E457C;}
	.st1{fill:#E8E8E8;}
	.st2{clip-path:url(#SVGID_2_);fill:#98C2EA;}
	.st3{fill:#7BB765;}
	.st4{fill:#5982B2;}
	.st5{fill:#D4D3D3;}
	.st6{fill:#F7F7F7;}
	.st7{fill:#EDEDED;}
	.st8{font-family:'BowlbyOneSC-Regular';}
	.st9{font-size:67.4357px;}
	.st10{fill:none;}
</style>
<g>
	<path class="st0" d="M255.85,44.28C84.11,51,17.7,100.34,17.7,100.34s28.4,227.23,41.51,244.71
		c11.46,15.28,104.74,90.68,196.64,129.84c91.9-39.16,185.18-114.56,196.64-129.84C465.6,327.56,494,100.34,494,100.34
		S427.58,51,255.85,44.28z"/>
	<path class="st1" d="M255.85,446.3c-81.58-37.76-160.02-100.43-175.78-116.6c-7.51-22.56-23.21-124.1-35.3-217.35
		c28.45-13.57,94.81-37.95,211.08-42.67c116.88,4.74,182.96,29.08,211.1,42.56c-12.09,93.28-27.81,194.88-35.31,217.46
		C415.87,345.87,337.42,408.53,255.85,446.3z"/>
	<g>
		<defs>
			<path id="SVGID_1_" d="M255.85,436.97c-77.54-35.89-152.09-95.45-167.07-110.83c-7.13-21.45-22.06-117.95-33.55-206.58
				c27.04-12.9,90.11-36.07,200.62-40.55c111.09,4.5,173.9,27.64,200.64,40.45c-11.49,88.65-26.43,185.23-33.57,206.68
				C407.94,341.52,333.38,401.07,255.85,436.97z"/>
		</defs>
		<clipPath id="SVGID_2_">
			<use xlink:href="#SVGID_1_"  style="overflow:visible;"/>
		</clipPath>
		<path class="st2" d="M444.27,323.87c0.03-1.42,0.21-2.8,0.21-4.23c0-103.58-83.97-187.55-187.55-187.55S69.38,216.06,69.38,319.64
			c0,1.43,0.18,2.81,0.21,4.23l187.34,117.76L444.27,323.87z"/>
	</g>
	<path class="st1" d="M100.22,340.07l19.65-22.82c16.4-13.82,39.73-22.89,71.19-27.67l2.55-1.32c0.09-0.06,0.27-0.2,0.44-0.35
		v-47.26c-0.19-0.16-0.42-0.33-0.6-0.44l-5.06-2.63l0.16-5.61v-17.96h134.73v23.66l-5.06,2.63c-0.09,0.05-0.27,0.2-0.44,0.35v47.26
		c0.21,0.18,0.43,0.35,0.44,0.35l2.55,1.32c31.47,4.77,54.79,13.85,71.19,27.67l19.65,22.82H100.22z"/>
	<path class="st1" d="M184.72,229.17v-9.95h-1.92l-6.07-20.85l79.2-50.37l73.25,46.59c4.98,3.16,7.31,9.33,5.66,15.01
		c-1.14,3.94-4.05,7.06-7.71,8.59v10.98H184.72z"/>
	<g>
		<path class="st3" d="M255.93,294.89c-37.73,0.12-97.47,2.11-130,29.54c48.04,0,112.36,0,130,0c17.64,0,81.96,0,130,0
			C353.4,297,293.65,295,255.93,294.89z"/>
		<g>
			<g>
				<g>
					
						<rect x="203.44" y="239.66" transform="matrix(-1 -1.224647e-16 1.224647e-16 -1 426.226 528.5507)" class="st4" width="19.34" height="49.23"/>
					
						<rect x="208.83" y="212.52" transform="matrix(-1.836970e-16 1 -1 -1.836970e-16 440.7977 14.5717)" class="st4" width="8.57" height="30.33"/>
					
						<rect x="208.83" y="285.7" transform="matrix(6.123234e-17 -1 1 6.123234e-17 -87.7534 513.9794)" class="st4" width="8.57" height="30.33"/>
					<path class="st4" d="M197.95,231.97c0,0,5.49,2.86,5.49,7.69h19.34c0-4.83,5.49-7.69,5.49-7.69H197.95z"/>
					<path class="st4" d="M197.95,296.58c0,0,5.49-2.86,5.49-7.69h19.34c0,4.83,5.49,7.69,5.49,7.69H197.95z"/>
					<g>
						<path class="st5" d="M208.2,240.54c-0.42,0-0.79-0.3-0.86-0.73c-0.76-4.27-2.8-6.83-2.82-6.85c-0.31-0.38-0.25-0.93,0.13-1.24
							c0.38-0.31,0.93-0.25,1.24,0.13c0.1,0.12,2.35,2.94,3.19,7.65c0.09,0.48-0.23,0.93-0.71,1.02
							C208.31,240.54,208.25,240.54,208.2,240.54z"/>
					</g>
					<g>
						<path class="st5" d="M208.2,288.01c-0.42,0-0.79,0.3-0.86,0.73c-0.76,4.27-2.8,6.83-2.82,6.85c-0.31,0.38-0.25,0.93,0.13,1.24
							c0.38,0.31,0.93,0.25,1.24-0.13c0.1-0.12,2.35-2.94,3.19-7.65c0.09-0.48-0.23-0.93-0.71-1.02
							C208.31,288.01,208.25,288.01,208.2,288.01z"/>
					</g>
					<g>
						<path class="st5" d="M218.02,240.54c-0.05,0-0.1,0-0.15-0.01c-0.48-0.08-0.8-0.54-0.71-1.02c0.84-4.71,3.09-7.53,3.19-7.65
							c0.3-0.38,0.86-0.43,1.23-0.13c0.38,0.3,0.44,0.86,0.13,1.24c-0.02,0.03-2.07,2.61-2.82,6.85
							C218.81,240.24,218.44,240.54,218.02,240.54z"/>
					</g>
					<g>
						<path class="st5" d="M218.02,288.01c-0.05,0-0.1,0-0.15,0.01c-0.48,0.08-0.8,0.54-0.71,1.02c0.84,4.71,3.09,7.53,3.19,7.65
							c0.3,0.38,0.86,0.43,1.23,0.13c0.38-0.3,0.44-0.86,0.13-1.24c-0.02-0.03-2.07-2.61-2.82-6.85
							C218.81,288.31,218.44,288.01,218.02,288.01z"/>
					</g>
					<g>
						<path class="st5" d="M213.11,240.54c-0.49,0-0.88-0.39-0.88-0.88v-7.69c0-0.49,0.39-0.88,0.88-0.88
							c0.49,0,0.88,0.39,0.88,0.88v7.69C213.99,240.15,213.6,240.54,213.11,240.54z"/>
					</g>
					<g>
						<path class="st5" d="M213.11,288.01c-0.49,0-0.88,0.39-0.88,0.88v7.69c0,0.49,0.39,0.88,0.88,0.88c0.49,0,0.88-0.39,0.88-0.88
							v-7.69C213.99,288.4,213.6,288.01,213.11,288.01z"/>
					</g>
				</g>
				<g>
					
						<rect x="289.07" y="239.66" transform="matrix(-1 -1.224647e-16 1.224647e-16 -1 597.4875 528.5507)" class="st4" width="19.34" height="49.23"/>
					
						<rect x="294.46" y="212.52" transform="matrix(-1.836970e-16 1 -1 -1.836970e-16 526.4282 -71.0589)" class="st4" width="8.57" height="30.33"/>
					
						<rect x="294.46" y="285.7" transform="matrix(6.123234e-17 -1 1 6.123234e-17 -2.1228 599.6099)" class="st4" width="8.57" height="30.33"/>
					<path class="st4" d="M283.58,231.97c0,0,5.49,2.86,5.49,7.69h19.34c0-4.83,5.49-7.69,5.49-7.69H283.58z"/>
					<path class="st4" d="M283.58,296.58c0,0,5.49-2.86,5.49-7.69h19.34c0,4.83,5.49,7.69,5.49,7.69H283.58z"/>
					<g>
						<path class="st5" d="M293.84,240.54c-0.42,0-0.79-0.3-0.86-0.73c-0.76-4.27-2.8-6.83-2.82-6.85
							c-0.31-0.38-0.25-0.93,0.13-1.24c0.38-0.31,0.93-0.25,1.24,0.13c0.1,0.12,2.35,2.94,3.19,7.65c0.08,0.48-0.23,0.93-0.71,1.02
							C293.94,240.54,293.89,240.54,293.84,240.54z"/>
					</g>
					<g>
						<path class="st5" d="M293.84,288.01c-0.42,0-0.79,0.3-0.86,0.73c-0.76,4.27-2.8,6.83-2.82,6.85
							c-0.31,0.38-0.25,0.93,0.13,1.24c0.38,0.31,0.93,0.25,1.24-0.13c0.1-0.12,2.35-2.94,3.19-7.65c0.08-0.48-0.23-0.93-0.71-1.02
							C293.94,288.01,293.89,288.01,293.84,288.01z"/>
					</g>
					<g>
						<path class="st5" d="M303.65,240.54c-0.05,0-0.1,0-0.15-0.01c-0.48-0.08-0.8-0.54-0.71-1.02c0.84-4.71,3.09-7.53,3.19-7.65
							c0.3-0.38,0.86-0.43,1.23-0.13c0.38,0.3,0.44,0.86,0.13,1.24c-0.02,0.03-2.07,2.61-2.82,6.85
							C304.44,240.24,304.07,240.54,303.65,240.54z"/>
					</g>
					<g>
						<path class="st5" d="M303.65,288.01c-0.05,0-0.1,0-0.15,0.01c-0.48,0.08-0.8,0.54-0.71,1.02c0.84,4.71,3.09,7.53,3.19,7.65
							c0.3,0.38,0.86,0.43,1.23,0.13c0.38-0.3,0.44-0.86,0.13-1.24c-0.02-0.03-2.07-2.61-2.82-6.85
							C304.44,288.31,304.07,288.01,303.65,288.01z"/>
					</g>
					<g>
						<path class="st5" d="M298.74,240.54c-0.49,0-0.88-0.39-0.88-0.88v-7.69c0-0.49,0.39-0.88,0.88-0.88
							c0.49,0,0.88,0.39,0.88,0.88v7.69C299.62,240.15,299.23,240.54,298.74,240.54z"/>
					</g>
					<g>
						<path class="st5" d="M298.74,288.01c-0.49,0-0.88,0.39-0.88,0.88v7.69c0,0.49,0.39,0.88,0.88,0.88c0.49,0,0.88-0.39,0.88-0.88
							v-7.69C299.62,288.4,299.23,288.01,298.74,288.01z"/>
					</g>
				</g>
				<g>
					
						<rect x="246.26" y="239.66" transform="matrix(-1 -1.224647e-16 1.224647e-16 -1 511.8564 528.5507)" class="st4" width="19.34" height="49.23"/>
					
						<rect x="251.64" y="212.52" transform="matrix(-1.836970e-16 1 -1 -1.836970e-16 483.613 -28.2437)" class="st4" width="8.57" height="30.33"/>
					
						<rect x="251.64" y="285.7" transform="matrix(6.123234e-17 -1 1 6.123234e-17 -44.938 556.7947)" class="st4" width="8.57" height="30.33"/>
					<path class="st4" d="M240.76,231.97c0,0,5.49,2.86,5.49,7.69h19.34c0-4.83,5.49-7.69,5.49-7.69H240.76z"/>
					<path class="st4" d="M240.76,296.58c0,0,5.49-2.86,5.49-7.69h19.34c0,4.83,5.49,7.69,5.49,7.69H240.76z"/>
					<g>
						<path class="st5" d="M251.02,240.54c-0.42,0-0.79-0.3-0.86-0.73c-0.76-4.27-2.8-6.83-2.82-6.85
							c-0.31-0.38-0.25-0.93,0.13-1.24c0.38-0.31,0.93-0.25,1.24,0.13c0.1,0.12,2.35,2.94,3.19,7.65c0.09,0.48-0.23,0.93-0.71,1.02
							C251.12,240.54,251.07,240.54,251.02,240.54z"/>
					</g>
					<g>
						<path class="st5" d="M251.02,288.01c-0.42,0-0.79,0.3-0.86,0.73c-0.76,4.27-2.8,6.83-2.82,6.85
							c-0.31,0.38-0.25,0.93,0.13,1.24c0.38,0.31,0.93,0.25,1.24-0.13c0.1-0.12,2.35-2.94,3.19-7.65c0.09-0.48-0.23-0.93-0.71-1.02
							C251.12,288.01,251.07,288.01,251.02,288.01z"/>
					</g>
					<g>
						<path class="st5" d="M260.84,240.54c-0.05,0-0.1,0-0.15-0.01c-0.48-0.08-0.8-0.54-0.71-1.02c0.84-4.71,3.09-7.53,3.19-7.65
							c0.3-0.38,0.86-0.43,1.23-0.13c0.38,0.3,0.44,0.86,0.13,1.24c-0.02,0.03-2.07,2.61-2.82,6.85
							C261.63,240.24,261.26,240.54,260.84,240.54z"/>
					</g>
					<g>
						<path class="st5" d="M260.84,288.01c-0.05,0-0.1,0-0.15,0.01c-0.48,0.08-0.8,0.54-0.71,1.02c0.84,4.71,3.09,7.53,3.19,7.65
							c0.3,0.38,0.86,0.43,1.23,0.13c0.38-0.3,0.44-0.86,0.13-1.24c-0.02-0.03-2.07-2.61-2.82-6.85
							C261.63,288.31,261.26,288.01,260.84,288.01z"/>
					</g>
					<g>
						<path class="st5" d="M255.93,240.54c-0.49,0-0.88-0.39-0.88-0.88v-7.69c0-0.49,0.39-0.88,0.88-0.88
							c0.49,0,0.88,0.39,0.88,0.88v7.69C256.81,240.15,256.41,240.54,255.93,240.54z"/>
					</g>
					<g>
						<path class="st5" d="M255.93,288.01c-0.49,0-0.88,0.39-0.88,0.88v7.69c0,0.49,0.39,0.88,0.88,0.88c0.49,0,0.88-0.39,0.88-0.88
							v-7.69C256.81,288.4,256.41,288.01,255.93,288.01z"/>
					</g>
				</g>
			</g>
			<path class="st4" d="M189.84,209.84l-2.13-7.33l68.22-43.38l68.22,43.38c1.49,0.95,2.18,2.77,1.68,4.46
				c-0.49,1.7-2.05,2.86-3.82,2.86H189.84z"/>
			<polygon class="st1" points="255.93,174.93 213.37,199.81 255.93,199.91 298.49,199.81 			"/>
			<rect x="194.11" y="207.59" class="st4" width="123.64" height="12.19"/>
		</g>
	</g>
	<polygon class="st6" points="31.08,436.11 59.74,390 31.08,343.96 480.61,343.96 451.95,390 480.61,436.11 	"/>
	<polygon class="st4" points="31.08,429.29 59.74,383.18 31.08,337.14 480.61,337.14 451.95,383.18 480.61,429.29 	"/>
	<text transform="matrix(1 0 0 1 126.7402 407.2617)" class="st7 st8 st9">center</text>
	<g>
		<path id="SVGID_x5F_3_x5F_" class="st10" d="M56.23,200.21c0-43.82,89.6-79.34,200.13-79.34s200.13,35.52,200.13,79.34"/>
		<text>		<textPath  xlink:href="#SVGID_x5F_3_x5F_" startOffset="0%">
<tspan  class="st0" style="font-family:'ChunkFive-Roman'; font-size:51.1544px;">PRIVATE</tspan>		</textPath>
</text>
		<g>
			<path id="SVGID_x5F_4_x5F_" class="st10" d="M56.23,200.21c0-43.82,89.6-79.34,200.13-79.34s200.13,35.52,200.13,79.34"/>
			<text>			<textPath  xlink:href="#SVGID_x5F_4_x5F_" startOffset="0%">
<tspan  style="fill:none;stroke:#E2E2E2;stroke-width:5.1951;stroke-linecap:round;stroke-linejoin:round;stroke-miterlimit:10; font-family:'ChunkFive-Roman'; font-size:51.1544px;">PRIVATE</tspan>			</textPath>
</text>
		</g>
		<path id="SVGID_x5F_5_x5F_" class="st10" d="M56.23,200.21c0-43.82,89.6-79.34,200.13-79.34s200.13,35.52,200.13,79.34"/>
		<text>		<textPath  xlink:href="#SVGID_x5F_5_x5F_" startOffset="0%">
<tspan  class="st0" style="font-family:'ChunkFive-Roman'; font-size:51.1544px;">PRIVATE</tspan>		</textPath>
</text>
	</g>
	<g>
		<g>
			<path class="st0" d="M117.79,278.27c0,0,4.92,12.09,12.05,15.41c6.4,2.98,10.74,1.46,13.06-2.11l-17.84-9.93l19.08,7.26
				c1.23-4.07-0.39-8.37-6.79-11.35C130.21,274.24,117.79,278.27,117.79,278.27z"/>
			<path class="st0" d="M154.57,254.36c0,0-9.25,9.21-9.56,17.07c-0.27,7.06,2.81,10.46,6.99,11.23l2.25-20.29l0.68,20.4
				c4.23-0.44,7.56-3.6,7.84-10.65C163.08,264.26,154.57,254.36,154.57,254.36z"/>
			<path class="st0" d="M107.21,260.26c0,0,4.21,10.35,10.31,13.19c5.48,2.55,9.18,1.24,11.17-1.8l-15.26-8.49l16.32,6.21
				c1.05-3.48-0.33-7.16-5.81-9.71C117.83,256.82,107.21,260.26,107.21,260.26z"/>
			<path class="st0" d="M139.21,240.94c0,0-7.91,7.88-8.17,14.6c-0.23,6.04,2.4,8.95,5.98,9.6l1.93-17.36l0.58,17.45
				c3.62-0.37,6.47-3.08,6.7-9.11C146.49,249.4,139.21,240.94,139.21,240.94z"/>
			<path class="st0" d="M99.73,238.15c0,0,3.28,10.67,9.11,14.04c5.23,3.02,9.04,2.04,11.28-0.82l-14.46-9.79l15.72,7.61
				c1.35-3.37,0.29-7.16-4.94-10.18C110.61,235.65,99.73,238.15,99.73,238.15z"/>
			<path class="st0" d="M130.43,221.84c0,0-8.57,7.16-9.42,13.83c-0.76,5.99,1.61,9.13,5.12,10.09l3.44-17.12l-0.94,17.44
				c3.64-0.06,6.71-2.5,7.47-8.49C136.95,230.91,130.43,221.84,130.43,221.84z"/>
			<path class="st0" d="M95.96,183.53c0,0-5.97,11.57-3.86,19.12c1.9,6.78,5.86,9.07,10.06,8.52l-4.06-19.95l6.88,19.16
				c3.88-1.71,6.08-5.72,4.19-12.5C107.07,190.32,95.96,183.53,95.96,183.53z"/>
			<path class="st0" d="M88.91,215.04c0,0,2.15,10.96,7.59,14.91c4.89,3.55,8.78,2.98,11.31,0.37l-13.35-11.25l14.83,9.22
				c1.7-3.21,1.04-7.09-3.85-10.64C99.99,213.7,88.91,215.04,88.91,215.04z"/>
			<path class="st0" d="M121.06,200.79c0,0-9.28,6.22-10.82,12.77c-1.38,5.88,0.65,9.25,4.03,10.57l5.21-16.67l-2.76,17.24
				c3.62,0.33,6.94-1.78,8.32-7.66C126.59,210.49,121.06,200.79,121.06,200.79z"/>
		</g>
		<g>
			<path class="st0" d="M393.9,278.27c0,0-4.92,12.09-12.05,15.41c-6.4,2.98-10.74,1.46-13.06-2.11l17.84-9.93l-19.08,7.26
				c-1.23-4.07,0.39-8.37,6.79-11.35C381.48,274.24,393.9,278.27,393.9,278.27z"/>
			<path class="st0" d="M357.13,254.36c0,0,9.25,9.21,9.56,17.07c0.27,7.06-2.81,10.46-6.99,11.23l-2.25-20.29l-0.68,20.4
				c-4.23-0.44-7.57-3.6-7.84-10.65C348.62,264.26,357.13,254.36,357.13,254.36z"/>
			<path class="st0" d="M404.49,260.26c0,0-4.21,10.35-10.31,13.19c-5.48,2.55-9.18,1.24-11.17-1.8l15.26-8.49l-16.32,6.21
				c-1.05-3.48,0.33-7.16,5.81-9.71C393.87,256.82,404.49,260.26,404.49,260.26z"/>
			<path class="st0" d="M372.49,240.94c0,0,7.91,7.88,8.17,14.6c0.23,6.04-2.4,8.95-5.98,9.6l-1.93-17.36l-0.58,17.45
				c-3.62-0.37-6.47-3.08-6.7-9.11C365.2,249.4,372.49,240.94,372.49,240.94z"/>
			<path class="st0" d="M411.97,238.15c0,0-3.28,10.67-9.11,14.04c-5.23,3.02-9.04,2.04-11.28-0.82l14.46-9.79l-15.71,7.61
				c-1.35-3.37-0.29-7.16,4.94-10.18C401.08,235.65,411.97,238.15,411.97,238.15z"/>
			<path class="st0" d="M381.26,221.84c0,0,8.57,7.16,9.42,13.83c0.76,5.99-1.61,9.13-5.12,10.09l-3.44-17.12l0.94,17.44
				c-3.64-0.06-6.72-2.5-7.47-8.49C374.75,230.91,381.26,221.84,381.26,221.84z"/>
			<path class="st0" d="M415.73,183.53c0,0,5.97,11.57,3.86,19.12c-1.9,6.78-5.86,9.07-10.07,8.52l4.06-19.95l-6.88,19.16
				c-3.88-1.71-6.08-5.72-4.19-12.5C404.63,190.32,415.73,183.53,415.73,183.53z"/>
			<path class="st0" d="M422.79,215.04c0,0-2.15,10.96-7.59,14.91c-4.89,3.55-8.78,2.98-11.31,0.37l13.35-11.25l-14.83,9.22
				c-1.7-3.21-1.04-7.09,3.85-10.64C411.7,213.7,422.79,215.04,422.79,215.04z"/>
			<path class="st0" d="M390.63,200.79c0,0,9.27,6.22,10.82,12.77c1.38,5.88-0.65,9.25-4.03,10.57l-5.21-16.67l2.76,17.24
				c-3.62,0.33-6.94-1.78-8.32-7.66C385.11,210.49,390.63,200.79,390.63,200.79z"/>
		</g>
	</g>
</g>
</svg>
